<svg xmlns="http://www.w3.org/2000/svg" width="141" height="45" viewBox="0 0 141 45" fill="none">
  <path fill-rule="evenodd" clip-rule="evenodd" d="M24.7609 6.76036C24.9785 4.43886 24.4047 2.05592 23.3559 0.00416599L23.3538 0H22.1821C22.8747 1.31645 23.4278 2.54334 23.6558 4.03372C23.8496 5.29914 23.937 6.71245 23.3809 7.89247C19.6409 7.66542 15.4499 5.47411 14.7615 1.48413L13.821 1.8497C13.9189 2.72872 14.3314 3.61921 14.8073 4.36804C16.5466 7.1051 19.77 8.46634 22.8851 8.90585C23.1153 9.23079 20.2804 12.6198 19.8794 13.0458L19.8214 13.1076C19.6091 13.3343 19.0865 13.8924 18.9795 13.9477C18.8501 14.0144 18.6238 13.7646 18.4479 13.5704C18.3817 13.4974 18.3227 13.4323 18.2786 13.3947C16.8028 12.1345 15.3624 11.2534 13.4503 10.8024C12.9585 10.6865 12.458 10.6106 11.9576 10.5347L11.9576 10.5347C11.4152 10.4524 10.8728 10.3701 10.3414 10.2369C10.4065 9.75641 10.5074 9.27916 10.6084 8.80142L10.6084 8.80141L10.6085 8.80139L10.6085 8.80137L10.6085 8.80135L10.6085 8.80134L10.6085 8.80132L10.6085 8.8013L10.6085 8.80129L10.6085 8.80127L10.6085 8.80125L10.6085 8.80123L10.6085 8.80122L10.6085 8.8012L10.6085 8.80118L10.6085 8.80117L10.6085 8.80115L10.6085 8.80113L10.6085 8.80111L10.6085 8.8011L10.6085 8.80108L10.6085 8.80106L10.6085 8.80105L10.6085 8.80103L10.6085 8.80101L10.6085 8.80099L10.6085 8.80098L10.6085 8.80096L10.6085 8.80094L10.6085 8.80093L10.6085 8.80091L10.6085 8.80089L10.6085 8.80087L10.6085 8.80086L10.6085 8.80084L10.6085 8.80082L10.6086 8.80081L10.6086 8.80079L10.6086 8.80077L10.6086 8.80075L10.6086 8.80074L10.6086 8.80072L10.6086 8.8007L10.6086 8.80068L10.6086 8.80067L10.6086 8.80065L10.6086 8.80063L10.6086 8.80062L10.6086 8.8006L10.6086 8.80058L10.6086 8.80056L10.6086 8.80055L10.6086 8.80053L10.6086 8.80051L10.6086 8.8005L10.6086 8.80048L10.6086 8.80046L10.6086 8.80044L10.6086 8.80043L10.6086 8.80041L10.6086 8.80039L10.6086 8.80038L10.6086 8.80036L10.6086 8.80034L10.6086 8.80032L10.6086 8.80031L10.6086 8.80029L10.6086 8.80027L10.6086 8.80026L10.6086 8.80024L10.6086 8.80022L10.6087 8.8002L10.6087 8.80019L10.6087 8.80017L10.6087 8.80015L10.6087 8.80014L10.6087 8.80012L10.6087 8.8001L10.6087 8.80008L10.6087 8.80007L10.6087 8.80005L10.6087 8.80003L10.6087 8.80002L10.6087 8.8L10.6087 8.79998L10.6087 8.79996L10.6087 8.79995L10.6087 8.79993L10.6087 8.79991L10.6087 8.7999L10.6087 8.79988L10.6087 8.79986L10.6087 8.79984L10.6087 8.79983L10.6087 8.79981L10.6087 8.79979L10.6087 8.79978L10.6087 8.79976L10.6087 8.79974C10.7515 8.1244 10.8945 7.44809 10.9371 6.76036C10.958 6.41563 10.985 3.44111 10.6601 3.43903C10.5739 3.54378 10.4277 3.61795 10.2854 3.69014C10.156 3.75575 10.0299 3.81973 9.95501 3.90353C9.7955 4.08228 9.87506 4.58434 9.94233 5.00886C9.97345 5.20521 10.0019 5.38497 10.0029 5.50848C10.0045 5.74264 9.9704 6.10687 9.94164 6.41397L9.94164 6.41402L9.94164 6.41405L9.94163 6.41408L9.94163 6.41413L9.94162 6.41417L9.94162 6.41421L9.94162 6.41425L9.94161 6.4143L9.94158 6.41462L9.94153 6.41509L9.94152 6.41521C9.93259 6.5106 9.92418 6.60044 9.91752 6.67913C9.82274 7.79561 9.59986 8.92147 9.28325 9.99005C7.89806 9.8484 6.33791 8.99333 5.93277 7.57898C5.82862 7.50191 5.22247 8.13931 5.18393 8.27991C5.12353 8.49862 5.58491 9.10165 5.74634 9.29016C7.02552 10.7836 9.23712 11.1257 11.3314 11.4497H11.3314C12.3422 11.606 13.3256 11.7582 14.1637 12.0335C14.248 12.0199 14.2272 12.1866 14.2106 12.2241C14.171 12.3147 13.2784 12.9 13.1139 13.0021C11.5745 13.9582 9.54362 14.6289 7.73038 14.2591L7.65123 14.104C7.78246 12.8177 6.49101 12.1939 5.3839 12.223C4.67985 14.029 5.52138 15.1392 7.3794 15.3131C9.65298 15.5266 11.8505 15.0371 13.769 13.8144C13.8703 13.7499 14.1097 13.5588 14.3757 13.3466C14.8179 12.9937 15.3336 12.5822 15.4103 12.5959C15.5332 12.6177 16.3758 13.2052 16.5487 13.3301C18.7317 14.9059 20.5407 17.4013 21.702 19.8155C21.7325 19.879 21.7973 20.0412 21.8769 20.2408L21.8769 20.2408L21.8769 20.2409L21.877 20.241C22.0772 20.7426 22.3716 21.4804 22.455 21.4819C22.5928 21.1174 22.6757 20.7334 22.7591 20.3475C22.825 20.0421 22.8913 19.7355 22.9851 19.4364C24.0527 16.0359 26.6928 13.3291 29.9392 11.9397C30.2994 11.7856 30.6358 11.6478 30.9537 11.5175C32.7093 10.7981 33.9006 10.3099 35.4226 8.59652C35.8184 8.15076 37.3411 6.07818 37.3338 5.58555C37.3317 5.39704 36.7745 5.03564 36.5953 4.92316C36.2267 5.66262 35.8517 6.38438 35.3685 7.05719C33.8416 9.18289 31.7118 10.4785 29.1883 11.0982C28.0666 9.55262 27.7687 8.08619 28.2967 6.23545C28.403 5.86363 29.1133 4.1035 29.3695 3.94415C29.4135 3.91711 29.5267 3.93552 29.6823 3.96081C30.0242 4.01637 30.5703 4.10513 31.0348 3.81813C31.3348 3.63274 32.1107 2.63603 32.0753 2.30588C32.0534 2.09758 31.0202 1.68098 30.8088 1.64869C29.8808 1.50496 29.2997 1.96114 28.8373 2.71414C27.8531 4.31909 26.8876 6.48124 27.0261 8.39968C27.1031 9.46016 27.5991 10.3837 28.0899 11.2973C28.1505 11.4101 28.211 11.5228 28.2707 11.6356C26.2846 12.6907 24.589 14.2623 23.3996 16.1786C23.1649 16.5577 22.9849 16.9517 22.8077 17.3394L22.8077 17.3395L22.8077 17.3395L22.8077 17.3395L22.8077 17.3395L22.8077 17.3396L22.8077 17.3396L22.8076 17.3396L22.8076 17.3396L22.8076 17.3396L22.8076 17.3397L22.8076 17.3397L22.8076 17.3397L22.8076 17.3397L22.8076 17.3398L22.8076 17.3398L22.8075 17.3398L22.8075 17.3398L22.8075 17.3399L22.8075 17.3399L22.8075 17.3399L22.8075 17.3399L22.8075 17.3399L22.8075 17.34L22.8074 17.34L22.8074 17.34L22.8074 17.34L22.8074 17.3401L22.8074 17.3401L22.8074 17.3401L22.8074 17.3401L22.8074 17.3401L22.8074 17.3402L22.8073 17.3402L22.8073 17.3403L22.8073 17.3404C22.6638 17.6543 22.5222 17.9641 22.355 18.2585C22.349 18.2691 22.3428 18.2806 22.3365 18.2925C22.296 18.3687 22.2464 18.462 22.1446 18.4376L19.6794 14.732C19.6923 14.6022 20.1981 14.1172 20.5829 13.7484L20.5829 13.7483L20.5829 13.7483L20.5829 13.7483L20.583 13.7483L20.583 13.7482C20.7572 13.5812 20.9065 13.438 20.974 13.3624C22.4029 11.7616 24.5567 8.93189 24.7609 6.76036ZM140.055 26.3277C139.57 26.2803 139.03 26.3087 138.491 26.3371C137.905 26.3679 137.32 26.3986 136.81 26.3319C136.672 26.3142 136.585 26.2934 136.497 26.1757C134.588 23.7167 132.79 21.1669 130.992 18.6174L130.992 18.6173L130.992 18.6171C129.177 16.044 127.362 13.4713 125.435 10.9927C125.403 10.9519 125.371 10.9039 125.337 10.8539C125.22 10.6805 125.087 10.4822 124.902 10.4709V26.21L124.786 26.3267H122.833L122.716 26.21V7.22978L121.66 5.9404L121.739 5.78418H126.27L137.559 21.2879L137.791 21.4066V6.9944C137.791 6.92276 137.546 6.65077 137.335 6.41728C137.209 6.27736 137.095 6.15126 137.054 6.09038C137.047 6.07861 137.037 6.06595 137.027 6.05268C136.971 5.97669 136.9 5.88092 137.008 5.82063L140.056 5.86229V26.3277H140.055ZM19.9185 44.9972L19.2238 44.8326C18.9166 42.81 19.4238 40.7583 19.9966 38.8273C19.1308 38.6849 18.7771 38.9931 18.1896 39.505L18.1605 39.5303L17.3408 39.3731C17.4252 38.4451 18.7125 37.7421 19.5717 37.7306C19.6605 37.7295 19.7617 37.7522 19.8653 37.7755C20.0508 37.8171 20.2443 37.8605 20.3893 37.7723C20.4303 37.7473 20.6265 37.392 20.8346 37.015C21.0336 36.6548 21.2434 36.2747 21.3391 36.1444C22.3098 34.8186 23.6158 33.8209 24.9093 32.8346C24.826 32.4531 24.7085 32.0801 24.591 31.7071C24.4561 31.2786 24.3211 30.8499 24.2376 30.4079C23.9366 28.8133 23.8814 26.6606 23.9783 25.0358C24.2428 20.6063 27.5933 16.2675 32.2644 16.1373C32.3562 15.8592 32.4289 15.5767 32.5016 15.2944L32.5017 15.2943L32.5017 15.2942C32.5964 14.9264 32.6911 14.5588 32.8278 14.2011C33.9974 11.1443 37.2083 8.7343 40.5401 8.8697L41.1639 9.72893C41.0968 9.84003 41.0497 9.83397 40.987 9.8259C40.9651 9.82307 40.9412 9.82 40.914 9.82162C40.7264 9.83395 40.5493 9.84202 40.3782 9.84982C39.7687 9.87762 39.235 9.90195 38.5706 10.1028C35.9263 10.8996 33.7245 13.3294 33.3871 16.0987C34.5379 16.2518 35.6461 16.4841 36.7397 16.8684C36.7982 16.8522 36.9895 16.4676 37.1478 16.1491L37.1479 16.1491C37.2345 15.9749 37.3112 15.8205 37.351 15.7571C38.3175 14.2178 39.8891 13.3054 41.617 12.8368C41.7899 12.7899 42.6626 12.5701 42.7522 12.592C42.9803 12.6482 43.2282 13.3606 43.1969 13.596C41.5836 13.7085 39.7277 14.4136 38.6685 15.6686C38.455 15.9217 37.6989 17.0257 37.726 17.3037C37.7406 17.4522 38.1824 17.7462 38.5233 17.9731L38.5233 17.9731C38.6657 18.0679 38.7904 18.1509 38.8591 18.2067C38.9547 18.2847 39.1614 18.485 39.3737 18.6906L39.3737 18.6906L39.3737 18.6906L39.3738 18.6907C39.6493 18.9577 39.934 19.2335 39.9964 19.2618C40.1633 19.3374 40.3133 19.2287 40.4596 19.1228C40.5288 19.0727 40.5972 19.0232 40.6661 18.9941C41.0879 18.817 41.366 18.7983 41.8065 18.9295C42.1398 19.0285 43.1573 19.6742 43.1073 20.0221C42.5543 20.8698 41.7534 21.4624 40.7109 21.1188C40.152 20.9347 39.7847 20.5228 39.4174 20.1108C39.2631 19.9378 39.1088 19.7648 38.9403 19.6086C37.3739 18.1588 35.4555 17.1663 33.2746 17.1892C33.1475 22.0655 37.9447 25.7545 42.6439 24.5286C42.5262 23.408 42.9355 22.6373 43.9999 22.2529C44.0372 22.2395 44.0734 22.226 44.1085 22.2129C44.4629 22.0808 44.7099 21.9887 44.8956 22.4019C45.1476 22.9622 45.3726 24.3234 44.8112 24.7046C43.2781 25.744 40.5619 25.9159 38.806 25.5243C35.0066 24.6775 32.1738 21.0938 32.2592 17.1902C28.2088 17.21 25.3874 21.0521 24.9958 24.8077C24.9355 25.3893 24.9573 25.9714 24.9789 26.5486V26.5486V26.5486V26.5487V26.5487V26.5487V26.5487V26.5487V26.5488C24.9864 26.7488 24.9939 26.9483 24.9979 27.1469C24.9995 27.2266 24.9974 27.3478 24.995 27.4934V27.4935V27.4935V27.4936V27.4937V27.4937V27.4938V27.4939V27.4939V27.494V27.4941V27.4942V27.4942V27.4943V27.4944V27.4944V27.4945V27.4946V27.4946V27.4947V27.4948V27.4948V27.4949V27.495V27.495V27.4951V27.4952V27.4952V27.4953V27.4954V27.4955V27.4955V27.4956V27.4957V27.4957V27.4958V27.4959V27.4959V27.496V27.4961V27.4961V27.4962V27.4963V27.4963V27.4964V27.4965V27.4966V27.4966V27.4967V27.4968V27.4968V27.4969V27.497V27.497V27.4971V27.4972V27.4972V27.4973V27.4974V27.4974V27.4975V27.4976V27.4977V27.4977V27.4978V27.4979V27.4979V27.498V27.4981V27.4981V27.4982V27.4983V27.4983V27.4984V27.4985V27.4985V27.4986V27.4987V27.4988V27.4988V27.4989V27.499V27.499V27.4991V27.4992V27.4992V27.4993V27.4994V27.4994V27.4995V27.4996V27.4996V27.4997V27.4998V27.4998V27.4999V27.5V27.5001V27.5001V27.5002C24.9847 28.1278 24.967 29.2007 25.1843 29.3851C25.2903 29.4707 25.4078 29.4402 25.5316 29.4081C25.5976 29.3909 25.6654 29.3733 25.7342 29.3726C27.7693 29.3466 29.7544 29.6642 31.5312 30.6912C32.1107 31.0261 32.6074 31.4515 33.1037 31.8765C33.6491 32.3436 34.1939 32.8101 34.8473 33.1553C35.2503 33.3688 36.5918 33.9229 36.9907 33.9011C37.1443 33.8924 37.4329 33.4549 37.6633 33.1057L37.6633 33.1057L37.6634 33.1055C37.7673 32.9481 37.8593 32.8087 37.9217 32.7346C38.657 31.8608 40.5953 30.5485 41.7503 30.5485H43.6645C43.6351 30.6457 43.6122 30.7396 43.5905 30.8284C43.4947 31.2209 43.4231 31.5145 42.922 31.5629C42.7416 31.5804 42.5524 31.5722 42.363 31.5641C42.1576 31.5552 41.9521 31.5463 41.7576 31.5702C40.5005 31.7264 39.1101 32.8179 38.354 33.7907C38.3017 34.0256 38.7636 33.9982 38.9671 33.9861C38.9864 33.985 39.0034 33.984 39.0174 33.9833C39.7871 33.9515 40.5398 33.7537 41.2881 33.557C41.6646 33.4581 42.0399 33.3595 42.4158 33.2824C42.4647 33.3282 41.8336 34.3926 41.7555 34.4572C41.5087 34.6593 39.5777 34.9603 39.1643 34.9905C37.8322 35.0904 36.2804 34.8728 35.0441 34.3656C34.0738 33.9676 33.3141 33.3488 32.5532 32.7289L32.5532 32.7289C31.8047 32.1192 31.055 31.5085 30.1022 31.1057C30.0854 31.0986 30.0621 31.0881 30.0341 31.0756C29.8117 30.9758 29.29 30.7418 29.2909 30.9786C29.293 31.8993 30.1887 32.594 30.8448 33.097L30.4157 33.8958C28.9982 33.3553 28.3952 31.9941 28.1213 30.588C27.8755 30.3756 25.4249 30.3131 25.3124 30.4745C25.68 32.368 26.5861 34.2239 28.0849 35.4675C28.3234 35.6654 29.2909 36.3548 29.5315 36.4444C29.6617 36.4923 29.7221 36.4986 29.8606 36.4715C30.0451 36.4345 30.3137 36.315 30.5924 36.1911L30.5924 36.1911C30.8471 36.0778 31.1101 35.9609 31.3249 35.8997C33.5121 35.28 35.4003 35.4331 37.4343 36.4298C37.8749 36.6454 38.7893 37.1505 39.1299 37.4671C39.1452 37.4815 39.1633 37.4949 39.1816 37.5084C39.2404 37.5519 39.302 37.5975 39.2861 37.6848C39.2395 37.7299 39.1842 37.8054 39.1228 37.8892C38.9673 38.1016 38.7728 38.3672 38.5831 38.3253C38.4937 38.3059 38.1888 38.0968 37.9003 37.899C37.6947 37.7581 37.4975 37.6229 37.3927 37.5661C35.7075 36.6548 34.3182 36.3121 32.3998 36.6621C32.1665 36.7048 31.0604 36.9735 30.9365 37.0735C30.8302 37.1599 30.824 37.2349 30.8938 37.3474C30.9267 37.3997 31.266 37.6121 31.5616 37.797L31.5617 37.7971L31.5618 37.7971L31.5622 37.7974L31.5623 37.7975C31.7428 37.9104 31.9069 38.0131 31.9748 38.0629C32.8965 38.7378 33.9537 39.5512 34.6817 40.4333L34.6885 40.4416C34.8417 40.6268 35.2028 41.0635 35.1576 41.2769C35.1472 41.3249 34.438 41.7873 34.3046 41.7092C34.1984 41.2207 32.129 39.2346 31.8405 39.3033C31.0364 40.5552 30.5459 42.0414 30.6094 43.5422C30.5584 43.712 29.7262 43.9484 29.6856 43.9067C29.4825 42.7767 29.7273 41.5373 30.1168 40.4708C30.2179 40.1936 30.3536 39.9264 30.4889 39.6601C30.6576 39.3282 30.8256 38.9976 30.925 38.6503C30.8813 38.4743 28.1932 36.7183 28.0036 36.7214C27.5808 36.7298 27.0246 38.3399 27.0736 38.7555C26.7028 38.8565 26.0685 39.0159 26.0904 38.4816C26.1248 37.6171 26.5789 36.6787 27.1673 36.057C27.1735 35.9797 26.8612 35.6639 26.6119 35.4117L26.6118 35.4117C26.4845 35.2829 26.3736 35.1707 26.3299 35.1154C26.2722 35.0434 26.1443 34.8525 26.0017 34.6395C25.7585 34.2764 25.4725 33.8495 25.4186 33.8396C24.1855 34.4853 23.1773 35.5393 22.2869 36.6017C22.2694 36.7173 22.7041 37.0068 23.0125 37.2122L23.0126 37.2122L23.0128 37.2124C23.1265 37.2881 23.2229 37.3523 23.2732 37.3922C25.68 39.2939 26.8528 41.428 27.3371 44.4806C27.2746 44.6722 26.4205 44.7889 26.3424 44.6733C25.9238 41.9643 24.8666 39.8824 22.6941 38.2056C22.5618 38.1035 21.8421 37.5765 21.7557 37.5765C21.5364 37.5745 21.1476 38.6558 21.0447 38.9418L21.036 38.9659C20.5736 40.2417 20.2997 41.5811 20.1581 42.9308V45.0003H19.9227L19.9185 44.9972ZM21.4808 0.00390625C21.8225 1.09852 21.2528 1.93901 20.0863 1.78903C19.7801 0.869391 20.104 0.36843 20.9341 0.00390625H21.4808ZM1.64035 22.9695C1.8424 21.801 1.16751 21.0855 0 21.4073V22.1884C0.375979 22.9008 0.850899 23.0581 1.64035 22.9695ZM25.4652 0.00390625H25.5422C25.5702 0.0383364 25.5991 0.0730753 25.6282 0.108205C25.8872 0.420561 26.1718 0.763788 26.1484 1.19538C26.1276 1.58282 25.5162 2.49725 25.1506 2.15356C24.3341 1.38597 24.7632 0.620473 25.4652 0.00390625ZM104.974 26.693C110.842 26.693 115.598 21.9365 115.598 16.0687C115.598 10.2009 110.842 5.44434 104.974 5.44434C99.106 5.44434 94.3495 10.2009 94.3495 16.0687C94.3495 21.9365 99.106 26.693 104.974 26.693ZM104.163 24.5287C95.5357 23.8466 95.5295 7.83457 104.654 7.60336H104.653C110.908 7.44505 113.038 13.418 111.881 18.7359C111.031 22.6405 108.21 24.8485 104.163 24.5287ZM69.0498 5.86236V8.83063C68.7067 8.7519 68.4239 8.49697 68.1434 8.24421L68.1433 8.24417C67.9674 8.08564 67.7925 7.92797 67.6042 7.81517H58.2703V14.5724L58.387 14.6891H66.3148V16.5637H58.2693V24.2583L58.3859 24.375H67.6032C67.668 24.375 67.8444 24.2142 68.057 24.0204C68.3976 23.71 68.8314 23.3146 69.0488 23.3595V26.2111L68.9321 26.3278H54.8324V7.30691L53.7773 5.93839L53.8565 5.7832H68.854C68.8624 5.7832 68.8779 5.79407 68.8976 5.80789C68.9386 5.83665 68.9977 5.8782 69.0498 5.86132V5.86236ZM12.2254 32.9698C14.3459 31.1378 17.0715 30.4691 19.8398 30.5462H19.8387C19.8304 30.9586 19.1961 33.353 18.9285 33.4291C17.6172 32.8354 16.2966 32.4917 14.8573 32.8667C14.2459 33.026 12.6597 33.8998 12.3754 34.4518C12.2921 34.6122 12.8909 35.1913 13.0669 35.1455C13.0999 35.1367 13.2622 35.0037 13.4709 34.8327C13.8103 34.5545 14.2722 34.176 14.498 34.0696C15.7457 33.4832 17.2839 33.6467 18.4233 34.4102C17.7304 35.595 16.6261 36.457 15.5345 37.309C15.11 37.6403 14.6874 37.9701 14.2917 38.3168C13.1024 39.3594 11.9161 40.4602 11.0204 41.7683C11.0058 41.9339 11.7265 42.3651 11.9494 42.2256C12.0039 42.1914 12.1877 41.9364 12.3687 41.6854L12.3687 41.6853C12.5133 41.4848 12.656 41.2869 12.7295 41.2059C12.9534 40.9601 14.5782 39.3396 14.7219 39.3719C14.826 39.4458 14.8614 39.551 14.8979 39.6666C15.2853 40.8956 15.2103 42.4432 15.0083 43.7014C15.0333 43.8013 15.8915 44.1273 15.9769 43.9836C16.0092 43.9284 16.1581 42.9911 16.1685 42.8473C16.2372 41.9287 16.1862 40.8008 15.9904 39.903C15.9699 39.81 15.9156 39.6412 15.8553 39.4534L15.8552 39.4534C15.7413 39.0989 15.6056 38.6768 15.6342 38.5699C15.7707 38.4573 15.9054 38.3469 16.0382 38.238C17.8003 36.7933 19.2235 35.6265 20.1126 33.3572C22.2321 27.9445 21.2635 19.0616 15.252 16.5047C12.1556 15.1883 8.54479 15.9954 6.90444 19.0595C6.6528 18.924 6.42216 18.7504 6.18973 18.5754L6.18971 18.5754L6.18969 18.5754L6.18967 18.5754C5.97383 18.4129 5.75644 18.2492 5.51925 18.1138C4.15594 17.3348 2.28125 16.862 0.739843 17.2661L0.546126 18.2055C2.17085 18.0264 3.60291 18.168 5.02142 19.0033C5.33282 19.1866 6.1681 19.7438 6.37223 19.9958C6.51953 20.1777 6.50428 20.6695 6.49082 21.1039C6.48401 21.3237 6.47765 21.5288 6.49305 21.6716C6.65864 23.2016 8.06153 25.0294 9.76229 24.2576C10.7246 23.8213 10.8538 23.464 10.0758 22.6975C9.50712 22.1361 9.01033 22.0403 8.24484 22.1924C8.1783 22.2057 8.11952 22.2366 8.06463 22.2655C7.94768 22.3271 7.84838 22.3794 7.7293 22.2319C7.3377 21.7487 7.47934 20.4635 7.6741 19.9052C8.67601 17.0307 12.1775 16.336 14.7604 17.3869C18.4348 18.8814 19.8887 22.9141 20.0731 26.6031C20.0929 26.9895 20.1158 29.3599 19.9231 29.4974C16.5424 29.4818 13.1201 30.3754 10.8069 32.9562C10.6991 32.9774 10.3621 32.6847 10.1019 32.4587C9.99 32.3616 9.8923 32.2767 9.83311 32.2345C7.32624 30.4358 5.23284 30.0484 2.15731 30.4004C2.0365 30.4139 1.59074 30.4723 1.56575 30.591C1.57967 30.628 1.59697 30.6815 1.61722 30.7441C1.703 31.0094 1.84164 31.4382 2.00005 31.4669C4.68293 30.9982 7.12419 31.4127 9.28841 33.0916C9.38326 33.1652 9.46971 33.2289 9.54658 33.2856L9.5468 33.2857L9.54702 33.2859L9.54711 33.2859C10.0505 33.6568 10.1424 33.7244 9.48838 34.2935C8.07091 35.5277 6.28371 35.8131 4.45276 35.7808C4.36319 35.8631 5.06204 36.7639 5.27658 36.7973C5.49113 36.8306 6.60449 36.6712 6.8909 36.6181C7.32641 36.5374 7.75215 36.3874 8.16977 36.2403L8.274 36.2036L8.39898 36.2401C8.86348 36.9952 9.17176 38.0335 9.04158 38.9251C9.01635 39.0965 8.88824 39.3935 8.77781 39.6495L8.77779 39.6496L8.77775 39.6497L8.77774 39.6497C8.6876 39.8587 8.60925 40.0404 8.60832 40.104C8.60623 40.2884 9.32382 40.7841 9.44672 40.6977C9.98309 39.6281 10.2195 38.6793 9.9758 37.4805C9.92905 37.2493 9.78601 36.914 9.6508 36.597C9.51189 36.2714 9.38123 35.9651 9.37173 35.811C9.36444 35.6964 9.39777 35.6131 9.48421 35.5391C10.1465 35.1297 10.6697 34.5665 11.1928 34.0035L11.1928 34.0034C11.5252 33.6456 11.8575 33.2879 12.2254 32.9698ZM90.0634 8.83069C89.9412 8.85329 89.8858 8.81815 89.7914 8.75824L89.7874 8.7557C89.5596 8.61103 89.3063 8.37419 89.0669 8.15032C88.9374 8.0293 88.8121 7.91207 88.697 7.81523H83.8936C83.9105 7.86728 83.8689 7.92646 83.8402 7.96741C83.8263 7.9871 83.8155 8.00258 83.8155 8.01103V26.3289H80.4952L80.3786 26.2122V7.81523H75.5752C75.5362 7.81523 75.3799 7.95593 75.1837 8.1326C74.8456 8.4371 74.3887 8.84849 74.2088 8.83069V5.902L74.3254 5.78535H89.8697C89.8832 5.78535 90.0655 5.96657 90.0655 5.98116V8.83278L90.0634 8.83069ZM121.319 34.7973C120.847 34.0947 120.374 33.3913 119.862 32.7333V32.7312H118.456L118.34 32.8479V39.175C118.34 39.1834 118.351 39.1989 118.364 39.2186C118.393 39.2596 118.435 39.3187 118.418 39.3708H119.746V35.661C119.746 35.5756 119.748 35.2277 119.754 35.2058C119.781 35.1058 119.878 35.0548 119.979 35.0756L122.988 39.3718H124.238L124.354 39.2552V32.7333H122.948V36.9514C122.818 36.982 122.808 36.951 122.795 36.9071C122.789 36.8899 122.783 36.8706 122.769 36.8524C122.261 36.1986 121.79 35.4983 121.319 34.7973ZM76.4768 36.0485C76.4768 37.9659 74.9229 39.5198 73.0055 39.5198C71.0881 39.5198 69.5342 37.9659 69.5342 36.0485C69.5342 34.1311 71.0881 32.5771 73.0055 32.5771C74.9229 32.5771 76.4768 34.1311 76.4768 36.0485ZM75.102 36.0464C75.102 34.8924 74.1667 33.9561 73.0117 33.9561C71.8567 33.9561 70.9214 34.8914 70.9214 36.0464C70.9214 37.2014 71.8567 38.1367 73.0117 38.1367C74.1667 38.1367 75.102 37.2014 75.102 36.0464ZM111.755 39.5148C113.672 39.5148 115.226 37.9608 115.226 36.0445C115.226 34.1281 113.672 32.5742 111.755 32.5742C109.839 32.5742 108.285 34.1281 108.285 36.0445C108.285 37.9608 109.839 39.5148 111.755 39.5148ZM111.763 33.9563C112.918 33.9563 113.854 34.8926 113.854 36.0476C113.854 37.2026 112.918 38.1389 111.763 38.1389C110.608 38.1389 109.671 37.2026 109.671 36.0476C109.671 34.8926 110.608 33.9563 111.763 33.9563ZM88.4226 32.7335V36.912C88.4226 36.9547 88.5746 37.3525 88.6131 37.4244C89.0047 38.1659 90.0494 38.3711 90.7159 37.8764C90.8378 37.7858 91.2356 37.2421 91.2356 37.1463V32.7324H92.6416V37.2234C92.6416 37.4192 92.3792 37.9826 92.2667 38.1763C91.2512 39.9073 88.2351 39.9208 87.2998 38.1138C87.254 38.0253 87.0176 37.4941 87.0176 37.4587V32.7324H88.4236L88.4226 32.7335ZM131.481 32.9894C130.824 32.6644 129.98 32.5613 129.256 32.6738H129.257C127.643 32.9248 126.996 34.9193 128.347 35.968C128.541 36.1189 128.877 36.2664 129.233 36.4234C129.889 36.7119 130.617 37.0324 130.68 37.4647C130.831 38.5145 129.544 38.351 128.887 38.0823C128.747 38.0251 128.627 37.9493 128.509 37.875C128.37 37.787 128.234 37.7009 128.07 37.6501C127.792 37.8271 127.161 38.3708 127.44 38.6718C128.008 39.2852 129.448 39.5289 130.243 39.4414C132.063 39.2415 132.936 37.1991 131.379 35.9816C131.134 35.7905 130.713 35.606 130.305 35.4271C129.841 35.2239 129.394 35.028 129.242 34.838C128.985 34.5204 129.094 33.9871 129.506 33.8621C129.86 33.7538 130.4 33.8153 130.735 33.9694C130.807 34.0025 130.879 34.0569 130.951 34.1121C131.095 34.222 131.242 34.3346 131.409 34.286C131.493 34.261 132.12 33.5257 132.084 33.407C132.061 33.3289 131.591 33.0446 131.481 32.9894ZM63.8775 32.6746C64.819 32.5465 66.0032 32.7267 66.6354 33.4734C66.6354 33.538 66.0095 34.2681 65.9511 34.2858C65.8043 34.3287 65.6202 34.2062 65.4364 34.0839C65.3256 34.0102 65.215 33.9366 65.1127 33.8994C64.642 33.7286 63.7994 33.6984 63.6161 34.2931C63.4471 34.8393 64.3552 35.2081 64.9898 35.4659C65.1805 35.5433 65.3465 35.6107 65.4512 35.6699C67.5405 36.8489 66.9093 39.26 64.6378 39.4485C63.6973 39.5266 62.4465 39.2454 61.8633 38.4736C61.9758 38.2643 62.3851 37.6707 62.6132 37.6488C62.6897 37.6412 62.8926 37.7672 63.0981 37.8948C63.2619 37.9965 63.4274 38.0992 63.5318 38.1362C64.1848 38.3674 65.3658 38.4549 65.2231 37.4634C65.1608 37.0305 64.4394 36.7145 63.7871 36.4288C63.4256 36.2704 63.0852 36.1213 62.8902 35.9668C61.4925 34.8586 62.1955 32.9027 63.8796 32.6746H63.8775ZM98.8105 33.9832H100.685H100.686C100.75 33.9832 100.87 32.8448 100.647 32.7334H95.4913C95.2591 33.05 95.3736 33.6135 95.4517 33.9832H97.3264L97.4045 39.3729H98.7324L98.8105 33.9832ZM81.0808 38.045L84.2053 38.0835C84.4407 38.1981 84.4323 39.1823 84.2438 39.3729H79.7133L79.5967 39.2562V32.851L79.7133 32.7344H80.9631L81.0798 32.851V38.046L81.0808 38.045ZM103.569 32.7332H105.061V39.3727H103.569V32.7332ZM8.2591 5.09271C8.55488 5.01044 9.03709 5.69991 9.17353 5.9457C9.84633 7.15175 9.13395 8.11931 8.09559 8.7442C7.43736 8.19013 6.82288 7.28402 7.13221 6.39354C7.24364 6.07172 7.9404 5.18228 8.2591 5.09271ZM14.386 9.16906C13.9528 8.35669 13.3778 7.85157 12.4009 7.99217V7.99113C12.1208 8.03174 11.1741 8.36607 11.1022 8.65144C11.047 8.87015 11.65 9.75542 11.8344 9.92311C12.4634 10.4949 13.1321 10.472 13.8798 10.1731C14.5683 9.89811 14.7297 9.81375 14.386 9.16906ZM26.7636 10.2654C26.9115 10.405 27.525 11.284 27.4875 11.4402C26.3085 12.389 25.0775 12.5661 24.1953 11.1538C23.7829 10.4935 23.8068 10.4196 24.5505 10.0675C25.3378 9.69468 26.094 9.63115 26.7626 10.2654H26.7636ZM16.9143 14.062C16.6623 13.737 15.6874 13.084 15.2854 13.2142L15.2864 13.2132C15.1011 13.2736 14.7865 14.3588 14.7699 14.5817C14.6907 15.6565 15.7864 16.4116 16.7445 16.5553C17.2226 15.8492 17.484 14.7983 16.9143 14.062ZM3.10485 19.473C3.93075 19.3313 4.91079 19.7229 5.2774 20.4759C4.70666 21.3987 3.90055 22.0757 2.75907 21.6549C2.48933 21.556 1.60718 21.0508 1.65092 20.7603C1.91963 20.2614 2.53307 19.5698 3.10485 19.4719V19.473ZM6.51925 23.5963C6.41093 23.2735 5.84019 22.2455 5.44547 22.3559V22.3549C4.96117 22.4913 4.24046 23.5995 4.21338 24.1035C4.18734 24.5743 4.56228 25.2815 4.87994 25.6252C5.30205 26.0832 5.40716 25.9893 5.83945 25.6031L5.8579 25.5866C6.45363 25.0555 6.78378 24.3847 6.51925 23.5963ZM16.461 19.4654C16.8547 19.3872 17.5015 20.3652 17.6129 20.7047C17.7817 21.2151 17.7098 21.6348 17.4526 22.1045C17.3474 22.2972 16.7068 23.0325 16.5162 23.0512C16.0642 23.095 15.3144 21.739 15.3029 21.2901C15.2904 20.7829 15.9528 19.5674 16.46 19.4654H16.461ZM42.1667 16.0657C41.698 15.571 40.7044 15.3408 40.0493 15.4866C39.4796 15.6137 38.7745 16.6489 38.6808 17.2176C40.0514 18.4028 41.7594 17.8092 42.1667 16.0657ZM26.6739 21.9754C28.3767 22.6024 28.81 24.1959 27.5238 25.5363C25.7886 24.9322 25.3075 23.2835 26.6739 21.9754ZM13.2391 18.9867C12.8235 17.9806 12.1684 17.5827 11.0718 17.7546H11.0707C10.8572 17.7879 10.098 18.0254 10.073 18.2441C10.0563 18.3972 10.3437 19.0523 10.4364 19.2116C10.9541 20.1011 11.6946 20.2823 12.6569 20.0427C13.4589 19.8428 13.5484 19.7365 13.2391 18.9867ZM22.009 13.5341C22.6589 13.4446 23.6504 13.9955 23.9816 14.5704C23.1255 16.1723 21.5237 16.3472 20.3322 14.9631C20.603 14.3444 21.3175 13.6289 22.01 13.5341H22.009ZM35.8937 13.6736C34.9772 13.6705 34.0722 14.738 34.0701 15.615C35.0178 16.1347 36.1354 16.445 36.9363 15.4973C37.079 15.3286 37.5383 14.5381 37.4851 14.3537C37.4018 14.0652 36.1895 13.6747 35.8937 13.6736ZM34.0962 17.9697H35.346C35.4053 17.9697 35.824 18.1384 35.9094 18.1874C36.5947 18.578 36.9103 19.7288 36.7562 20.4735C36.075 20.7964 34.8877 20.5839 34.4138 19.9944C34.042 19.5309 33.8077 18.4894 34.0951 17.9697H34.0962ZM13.5621 2.96317C13.4184 2.72362 13.0226 2.11539 12.7102 2.20287H12.7091C12.655 2.21745 12.1134 2.70383 12.0405 2.78924C11.3823 3.56619 11.3625 4.24837 11.8853 5.10761C12.4477 6.03142 12.8029 5.92623 13.433 5.11907C14.0225 4.36398 14.0547 3.78178 13.5621 2.96317ZM1.03401 16.1548C0.861119 15.9985 1.27251 15.1487 1.39228 14.9466C1.94635 14.0155 2.78371 13.8989 3.76792 14.2426C3.82554 14.2627 3.87927 14.2792 3.92867 14.2943C4.19361 14.3754 4.33405 14.4184 4.28138 14.7862C4.18973 15.4288 3.53151 16.3797 2.8462 16.4787C2.44315 16.5359 1.33708 16.4276 1.03505 16.1548H1.03401ZM31.28 7.18425C31.1829 6.91136 31.1304 6.76353 30.7571 6.81646V6.8175C30.379 6.87062 29.5844 7.38304 29.3698 7.69861C28.9376 8.33497 29.0782 9.61497 29.6542 10.1451C31.1706 9.76078 31.9236 8.87967 31.3247 7.30701C31.3082 7.26374 31.2936 7.22275 31.28 7.18425ZM34.7497 26.4742C33.9769 26.5283 32.7073 25.944 32.5782 25.1129C32.524 24.7651 32.5334 23.4903 32.8865 23.3174C33.0093 23.257 33.8342 23.5246 34.0081 23.6048C35.2121 24.1589 35.1621 25.3837 34.7497 26.4742ZM18.8005 9.1543C20.3533 10.1708 20.1669 11.9809 18.564 12.8027C17.0893 11.6622 17.2247 10.1031 18.8005 9.1543ZM16.2292 0.882731C17.6498 0.686929 18.283 1.52846 18.558 2.81471C17.9737 3.30213 16.8531 3.48752 16.2084 3.05009C15.8188 2.78659 15.221 1.82633 15.2356 1.36286C15.2439 1.11811 16.0199 0.910851 16.2292 0.881689V0.882731ZM41.0094 23.556C41.2833 23.3227 41.9749 22.3947 41.7738 22.0479L41.7749 22.0468C41.7218 21.9552 40.8084 21.6084 40.6376 21.5834C39.3545 21.3949 38.716 22.1895 38.3682 23.3112C39.0306 23.9611 40.2626 24.1913 41.0094 23.556ZM23.1203 7.15043C22.5902 7.46496 21.455 7.1723 21.0186 6.75258C20.4906 6.24433 20.452 5.18512 20.6197 4.51336L20.7176 4.43108C21.3769 4.42275 22.2517 4.53731 22.7287 5.04348C22.8298 5.15075 23.1203 5.71733 23.1203 5.82356V7.15043ZM27.5735 3.79219C27.5402 3.48286 27.109 2.38825 26.7726 2.4372H26.7716C26.3029 2.5049 25.3739 3.35372 25.2635 3.82656C25.125 4.41813 25.3041 5.02116 25.6072 5.5242C25.6356 5.57126 25.6603 5.61583 25.6831 5.65704C25.8107 5.8876 25.88 6.01293 26.2237 5.88039C27.0851 5.54711 27.6745 4.72745 27.5735 3.79219ZM39.1926 10.2502C39.5179 10.1855 39.7178 10.654 39.8349 10.9285L39.8508 10.9657C40.4653 12.3957 39.7289 13.2601 38.4052 13.7455C37.696 12.9112 37.3554 11.7145 38.2334 10.8584C38.3833 10.7116 39.0072 10.2866 39.1936 10.2502H39.1926ZM30.3463 12.8926H29.0184C28.6872 12.8926 29.059 14.4205 29.1985 14.6652C29.3506 14.9329 29.9744 15.4703 30.2681 15.4703H31.596C31.9345 14.8923 31.5711 13.5404 31.0066 13.1696C30.9347 13.1227 30.3817 12.8926 30.3463 12.8926ZM31.2009 18.1432L31.2328 18.1399L31.2329 18.1399C31.4685 18.1151 31.6269 18.0984 31.6952 18.4168C31.7494 18.6667 31.7431 19.3812 31.7129 19.6499C31.5984 20.6748 30.2871 21.2195 29.3644 21.0601C28.8572 19.4697 29.4373 18.3012 31.1505 18.1491V18.1481C31.1677 18.1466 31.1845 18.1449 31.2009 18.1432ZM34.0321 3.21596C35.7683 3.75129 36.1338 5.53954 34.7986 6.77788C33.1104 6.13944 32.7615 4.50117 34.0321 3.21596ZM43.5256 41.7042C43.5256 42.8384 42.606 43.7581 41.4718 43.7581C40.3376 43.7581 39.418 42.8384 39.418 41.7042C39.418 40.57 40.3376 39.6504 41.4718 39.6504C42.606 39.6504 43.5256 40.57 43.5256 41.7042ZM43.0757 41.6938C43.0757 40.8085 42.3581 40.0899 41.4718 40.0899C40.5855 40.0899 39.8679 40.8075 39.8679 41.6938C39.8679 42.5801 40.5855 43.2977 41.4718 43.2977C42.3581 43.2977 43.0757 42.5801 43.0757 41.6938ZM18.129 15.8194C18.0478 15.7976 17.9697 15.8298 17.9103 15.883C17.8124 15.9704 17.5854 16.437 17.55 16.5787C17.3823 17.2473 17.8718 17.7608 18.4571 17.9618C19.2809 17.2702 19.0935 16.2548 18.129 15.8194ZM30.459 21.6454C30.7725 22.7911 30.2923 23.4212 29.1405 23.5128C28.6489 22.4359 29.2967 21.5444 30.459 21.6454ZM42.8945 27.1757C43.2309 27.2309 43.8516 27.1601 44.1099 26.9289C44.4369 26.6362 44.5244 25.954 44.4119 25.5416C43.359 25.2198 42.5373 26.1446 42.8945 27.1757ZM9.27031 18.8381C9.41716 18.8256 9.73586 19.413 9.7796 19.5536C9.99727 20.2389 9.49631 20.8201 8.87558 21.0117C8.43816 20.5003 8.15279 19.9546 8.59021 19.337C8.69436 19.1901 9.10055 18.8537 9.26927 18.8391L9.27031 18.8381ZM21.0348 8.92552C20.864 8.88698 20.6932 8.89948 20.5224 8.9276V8.92864C20.3568 8.95572 19.8058 9.17964 19.7735 9.34941C20.1016 10.4013 20.9504 10.6981 21.8336 10.0024C22.019 9.70247 21.3545 8.99842 21.0348 8.92552ZM18.0205 22.4297C19.0599 22.7578 19.3078 23.8659 18.4642 24.6033C17.43 24.1794 17.205 23.2171 18.0205 22.4297ZM37.7871 6.97843C37.5236 7.0982 36.9404 7.83559 37.1154 8.11679C37.9298 8.56047 38.7797 8.46048 39.0911 7.49814C39.2744 6.93156 38.1798 6.80034 37.7871 6.97843ZM4.66194 9.467C4.7765 9.43888 5.316 9.6076 5.4441 9.67426C5.76384 9.8409 5.99817 10.2325 6.01692 10.5908C6.05025 11.2188 5.81591 11.3573 5.22643 11.2178C4.37969 11.0178 4.10682 9.60031 4.6609 9.46596L4.66194 9.467ZM37.6181 19.623C38.696 19.7584 39.1501 20.5322 38.6658 21.5258C37.5722 21.6695 36.9244 20.4853 37.6181 19.623ZM3.1716 11.1015C4.19435 11.4795 4.60782 12.4627 3.7111 13.2605C2.66232 12.8835 2.41444 11.9399 3.1716 11.1015ZM14.4217 22.0421C15.4882 22.4254 15.6413 23.42 14.8716 24.2126C13.8166 23.8793 13.5906 22.7795 14.4217 22.0421ZM31.9256 4.07425C32.2214 3.99718 32.713 4.83871 32.7171 5.11887C32.7213 5.39904 32.2849 6.25619 31.9881 6.25619C31.7079 6.25619 31.2517 5.4834 31.2424 5.19594C31.232 4.86058 31.6173 4.15445 31.9256 4.07425ZM30.6124 5.26377C30.653 4.45765 29.5886 4.76177 29.2397 5.10755C28.921 5.42312 28.8992 6.05635 29.0512 6.45316C29.9511 6.52398 30.5645 6.2282 30.6124 5.26377ZM7.16896 15.7194C7.53973 15.6787 8.12193 15.9849 8.3396 16.2901C8.05007 17.1389 6.89401 17.5347 6.2837 16.8036C5.97021 16.4286 6.77736 15.7621 7.16896 15.7194ZM13.6622 20.3997C14.0069 21.5234 13.5163 22.2577 12.3478 22.2598C11.9374 21.1933 12.5228 20.3486 13.6622 20.3997ZM36.3019 21.2695C37.1778 21.1237 37.7173 21.6476 37.7736 22.5006C36.8091 23.0682 35.9562 22.6047 35.7854 21.532C35.8135 21.4112 36.1811 21.2893 36.3019 21.2695ZM26.0118 6.9136L25.8348 6.88965C25.2203 7.23334 24.8776 7.82075 25.1995 8.51022C25.4963 9.14762 25.8244 9.19657 26.2451 8.6352C26.7513 7.95927 26.4743 7.50309 26.0118 6.9136ZM27.3752 0.497872C28.0897 0.732209 28.5833 0.980085 28.5021 1.82995C28.4282 2.59961 28.0834 2.67356 27.4835 2.24134C26.9034 1.8237 26.8701 0.976961 27.3752 0.497872ZM19.0878 3.68359C18.1109 4.12519 18.0599 5.10836 18.7608 5.84783V5.84678C19.0358 6.00822 19.6346 5.28229 19.6804 5.03858C19.7898 4.45951 19.5388 4.01375 19.0878 3.68359ZM44.2887 16.0184C44.5761 17.1171 43.9762 17.9743 42.816 17.7243C42.6181 16.5974 43.1128 15.8975 44.2887 16.0184ZM15.3812 19.1711C15.4645 18.2973 14.9219 18.0254 14.1741 17.8369C13.7273 18.417 13.7752 19.1815 14.4251 19.597C15.0323 19.9855 15.3093 19.9199 15.3812 19.1711ZM24.4203 17.9756C25.1973 18.4099 25.4556 19.3077 24.764 19.9648C24.4057 20.3044 24.2485 20.1565 23.9933 19.793C23.4819 19.065 23.7829 18.4682 24.4203 17.9756ZM20.4554 20.0691C19.3368 20.0149 18.8838 19.1547 19.2993 18.1319C20.4606 18.0944 20.9532 19.0661 20.4554 20.0691ZM17.3136 7.5089C17.5021 7.45162 17.7708 7.71928 17.8896 7.85155C18.4541 8.48582 18.2426 9.22008 17.6032 9.68146C16.9304 9.37214 16.5971 8.76599 16.9106 8.0484C16.9533 7.95154 17.2449 7.52973 17.3147 7.5089H17.3136ZM7.42836 11.1825C8.53963 11.1221 9.14161 11.997 8.67294 13.0166C7.58562 13.0676 6.96281 12.1813 7.42836 11.1825ZM28.0179 14.0094C28.6303 14.5395 28.6542 15.6966 27.8637 16.0372C27.3992 16.2371 27.0201 15.3716 27.0451 14.9821C27.068 14.6301 27.6752 13.7125 28.0179 14.0094ZM15.5166 6.88965C16.5477 7.21876 16.707 8.39461 15.8843 9.05284C14.8511 8.69873 14.7042 7.56662 15.5166 6.88965ZM40.9885 10.6463C41.3707 10.5869 41.654 10.6369 41.9384 10.9077C42.0935 11.0556 42.4435 11.5993 42.3029 11.8024C42.2487 11.8805 41.5613 12.1002 41.4311 12.1034C40.8323 12.1211 40.448 11.5503 40.2501 11.0556C40.2636 10.8692 40.8198 10.6723 40.9885 10.6463ZM27.1751 16.7757C26.8918 16.3882 26.4085 16.1049 25.9128 16.1914V16.1924C25.6545 16.2372 24.9536 16.6986 25.0088 16.9829C25.6732 17.8776 26.7553 17.8068 27.1751 16.7757ZM33.4839 8.2585C33.3568 8.38556 32.7455 8.76884 32.5819 8.66573C32.2132 7.95543 32.0904 7.37115 32.8121 6.84519C33.0517 6.67022 33.3474 6.45879 33.5276 6.74521C33.8015 7.18263 33.8703 7.87315 33.4839 8.25954V8.2585ZM44.9862 19.3677C43.9811 19.8875 43.1323 19.5521 42.9678 18.4096C43.8947 17.7701 44.88 18.2544 44.9862 19.3677ZM44.8926 19.8584L45.0301 19.9219C45.4571 20.9446 44.9134 21.8049 43.8157 21.7653C43.3606 20.752 43.8449 20.0208 44.8926 19.8584ZM11.9385 12.6315C11.6646 12.268 11.2501 11.9306 10.7627 11.9722C10.3825 12.0045 9.92426 12.3524 9.76074 12.6982C10.2659 13.6553 11.5344 13.6241 11.9385 12.6315ZM28.4923 19.8624C28.5277 19.902 28.7276 20.4321 28.7401 20.5134C28.8599 21.2841 28.3058 21.7048 27.6216 21.8715C27.1571 21.1664 27.0831 20.4842 27.8611 20.0155L27.8966 19.9941C28.0609 19.8941 28.3579 19.7135 28.4923 19.8624ZM3.42647 22.4329C4.09302 23.2181 3.96075 24.2461 2.93905 24.5992C2.07565 23.8535 2.3506 22.6912 3.42647 22.4329ZM13.3397 14.3149C13.8605 14.2441 14.3021 14.593 14.602 14.9741C14.1323 15.8573 13.0492 16.0094 12.4316 15.1804C12.3378 14.8387 13.019 14.3576 13.3397 14.3138V14.3149ZM5.31091 15.1137L5.1349 15.0908L5.13385 15.0919C4.32149 15.5074 4.08403 16.3458 4.68497 17.0717C4.87036 17.2936 4.90993 17.3019 5.14948 17.1447C5.99725 16.5895 5.90873 15.824 5.31091 15.1137ZM1.70486 18.6099C1.9819 19.7274 1.28618 20.418 0.156165 20.2357C-0.0333869 19.1359 0.579011 18.3454 1.70486 18.6099ZM20.763 3.26101C21.1389 3.98277 21.8992 3.96194 22.5647 3.66511C22.5616 3.06209 22.1179 2.3497 21.443 2.34658C20.7682 2.34345 20.4193 2.6007 20.763 3.26101ZM32.0792 20.7148C32.9978 21.2783 32.928 22.5135 31.9104 22.8978C31.0429 22.2813 31.1481 21.2075 32.0792 20.7148ZM24.3522 12.4832C24.3335 12.1207 23.7784 11.325 23.4107 11.4187V11.4177C23.0931 11.4989 22.8452 12.3082 22.8889 12.6123C22.9327 12.9164 23.467 13.5507 23.7825 13.5226C24.021 13.5017 24.3658 12.7258 24.3522 12.4832ZM11.415 6.34175C12.369 5.85641 13.3762 6.30946 13.322 7.42595C12.3909 8.03314 11.4317 7.37908 11.415 6.34175ZM13.6875 6.5099C13.7073 6.60363 14.0333 7.1525 14.0749 7.17646V7.1775C14.4124 7.37434 15.0206 6.62863 15.0706 6.28806C15.1206 5.94749 14.8363 5.10804 14.4853 5.07784C14.2239 5.05492 13.7396 5.609 13.6854 5.84021C13.6437 6.02039 13.649 6.32764 13.6875 6.5099ZM16.9401 11.0095C16.2111 11.1771 15.5487 11.2459 15.1998 10.4627C14.9029 9.79611 15.1092 9.58781 15.8163 9.60552C16.5798 9.62427 17.0266 10.2929 16.9401 11.0095ZM33.3966 11.4034C33.3112 11.2794 32.7176 11.3169 32.5509 11.3482C31.8906 11.47 31.5501 12.2543 31.7854 12.8583C32.8353 13.1114 33.6039 12.4834 33.3966 11.4034ZM43.9663 15.3822C43.0092 15.905 42.1271 15.6322 41.9042 14.5292C42.7894 13.8429 43.8841 14.2751 43.9663 15.3822ZM37.4897 13.5131C36.3367 13.711 35.6618 12.9059 36.0201 11.8103C37.0918 11.7332 37.7782 12.4602 37.4897 13.5131ZM1.46448 26.2283C1.24993 26.4824 0.435485 25.8294 0.349041 25.5513C0.218855 25.1337 0.366746 24.5286 0.679194 24.2266C1.75193 24.3797 1.98418 25.3462 1.46552 26.2283H1.46448ZM37.1204 25.9588C36.9944 25.7036 36.282 25.1631 36.0217 25.3245V25.3234C35.9852 25.3464 35.7967 25.8827 35.7832 25.9817C35.6811 26.7513 36.1675 27.2294 36.8965 27.3346C37.2069 27.0159 37.3183 26.3618 37.1204 25.9588ZM40.8352 26.194C41.733 26.0545 42.2944 26.6179 42.2256 27.5053C41.2924 28.001 40.1614 27.3553 40.4613 26.2878C40.5821 26.2492 40.7092 26.2128 40.8352 26.194ZM30.2432 25.1423C29.91 24.1206 30.387 23.3155 31.4805 23.3145C31.9898 24.3112 31.3628 25.337 30.2432 25.1423ZM11.143 20.6529C11.5992 21.1559 11.4544 22.1006 10.8337 22.412C9.84741 21.8683 9.75264 21.0987 10.4359 20.229C10.5577 20.2113 11.0514 20.5519 11.143 20.6529ZM12.9618 23.8718C12.8868 23.4011 12.0547 22.9074 11.611 23.0563C11.4246 23.1188 11.4548 23.8489 11.4787 24.027C11.5631 24.6457 12.2775 24.856 12.8139 24.8852C13.0055 24.7779 12.9941 24.0728 12.9618 23.8718ZM39.5131 26.1052C39.8339 27.1332 39.1747 27.8924 38.1155 27.7799C37.6187 26.7884 38.4696 25.8709 39.5131 26.1052ZM42.2169 40.8587C42.0118 40.6452 40.7557 40.6213 40.6953 40.8181V42.7313L41.1296 42.6584L41.1629 41.9502C41.644 41.8148 41.7353 42.0983 41.8205 42.3627C41.8892 42.5762 41.954 42.7774 42.2169 42.7355C42.5788 42.6781 42.2997 42.2182 42.1343 41.9456C42.0779 41.8526 42.0347 41.7814 42.0347 41.7555C42.0347 41.7455 42.0575 41.7218 42.0912 41.6869C42.2301 41.5429 42.553 41.2082 42.2169 40.8587ZM41.1744 41.5492C42.0222 41.7805 42.1576 40.8577 41.164 41.0129L41.1744 41.5492Z" fill="#00263e"/>
</svg>